<svg xmlns="http://www.w3.org/2000/svg" width="160" height="60" viewBox="0 0 160 60"><g transform="translate(-1.3742441171633004,-3.528528528528568)translate(81.18000030517581,26.5)rotate(0)translate(-81.18000030517581,-26.5)" opacity="1"><filter id="shadow_0" x="-26.333333253860474" y="-26.333333253860474" width="162.36000061035162" height="53"><feGaussianBlur stdDeviation="2.380952380952381"/><feOffset dx="1" dy="3"/></filter><path transform="translate(6,42.24)rotate(0)" d="M2.72 0L2.72-21.64L9.80-21.64L9.80 0L2.72 0ZM6.20-31.60L6.20-31.60Q7.84-31.60 8.90-30.54L8.90-30.54L8.90-30.54Q9.96-29.48 9.96-27.80L9.96-27.80L9.96-27.80Q9.96-26.16 8.90-25.08L8.90-25.08L8.90-25.08Q7.84-24 6.20-24L6.20-24L6.20-24Q4.56-24 3.50-25.08L3.50-25.08L3.50-25.08Q2.44-26.16 2.44-27.80L2.44-27.80L2.44-27.80Q2.44-29.48 3.50-30.54L3.50-30.54L3.50-30.54Q4.56-31.60 6.20-31.60L6.20-31.60ZM34.56-19.60L34.56-19.60Q32.32-20.92 29.78-21.76L29.78-21.76L29.78-21.76Q27.24-22.60 25.52-22.60L25.52-22.60L25.52-22.60Q24.16-22.60 23.38-22.10L23.38-22.10L23.38-22.10Q22.60-21.60 22.60-20.64L22.60-20.64L22.60-20.64Q22.60-19.72 23.28-19.10L23.28-19.10L23.28-19.10Q23.96-18.48 24.96-18.10L24.96-18.10L24.96-18.10Q25.96-17.72 27.92-17.12L27.92-17.12L27.92-17.12Q30.84-16.28 32.74-15.44L32.74-15.44L32.74-15.44Q34.64-14.60 36-12.86L36-12.86L36-12.86Q37.36-11.12 37.36-8.32L37.36-8.32L37.36-8.32Q37.36-5.52 35.88-3.54L35.88-3.54L35.88-3.54Q34.40-1.56 31.82-0.56L31.82-0.56L31.82-0.56Q29.24 0.44 26.08 0.44L26.08 0.44L26.08 0.44Q22.60 0.44 19.14-0.78L19.14-0.78L19.14-0.78Q15.68-2 13.16-4.12L13.16-4.12L16-9.84L16-9.84Q18.12-7.96 21.02-6.76L21.02-6.76L21.02-6.76Q23.92-5.56 26.16-5.56L26.16-5.56L26.16-5.56Q27.80-5.56 28.74-6.16L28.74-6.16L28.74-6.16Q29.68-6.76 29.68-7.92L29.68-7.92L29.68-7.92Q29.68-8.88 28.98-9.52L28.98-9.52L28.98-9.52Q28.28-10.16 27.22-10.54L27.22-10.54L27.22-10.54Q26.16-10.92 24.24-11.44L24.24-11.44L24.24-11.44Q21.36-12.24 19.48-13.06L19.48-13.06L19.48-13.06Q17.60-13.88 16.26-15.54L16.26-15.54L16.26-15.54Q14.92-17.20 14.92-19.96L14.92-19.96L14.92-19.96Q14.92-22.56 16.30-24.52L16.30-24.52L16.30-24.52Q17.68-26.48 20.22-27.54L20.22-27.54L20.22-27.54Q22.76-28.60 26.12-28.60L26.12-28.60L26.12-28.60Q29.16-28.60 32.12-27.74L32.12-27.74L32.12-27.74Q35.08-26.88 37.32-25.44L37.32-25.44L34.56-19.60ZM41.08 0L41.08-28.04L63.20-28.04L63.20-22.20L48.40-22.20L48.40-16.96L61.76-16.96L61.76-11.16L48.40-11.12L48.40-5.84L63.60-5.84L63.60 0L41.08 0ZM93.20 0L84.92 0L80.84-7.76L80.68-7.76L75.40-7.76L75.40 0L68.08 0L68.08-28.04L80.68-28.04L80.68-28.04Q86.24-28.04 89.30-25.46L89.30-25.46L89.30-25.46Q92.36-22.88 92.36-18.20L92.36-18.20L92.36-18.20Q92.36-15.04 91.08-12.74L91.08-12.74L91.08-12.74Q89.80-10.44 87.36-9.16L87.36-9.16L93.20 0ZM75.40-22.20L75.40-13.60L80.72-13.60L80.72-13.60Q82.96-13.60 84.18-14.72L84.18-14.72L84.18-14.72Q85.40-15.84 85.40-17.96L85.40-17.96L85.40-17.96Q85.40-20 84.18-21.10L84.18-21.10L84.18-21.10Q82.96-22.20 80.72-22.20L80.72-22.20L75.40-22.20ZM105.12 0L94.24-28.04L102.12-28.04L109.12-7.76L116.16-28.04L123.68-28.04L112.72 0L105.12 0ZM126.32 0L126.32-28.04L148.44-28.04L148.44-22.20L133.64-22.20L133.64-16.96L147-16.96L147-11.16L133.64-11.12L133.64-5.84L148.84-5.84L148.84 0L126.32 0Z" fill="#000000" stroke="#000000" stroke-width="5" stroke-linejoin="round" stroke-miterlimit="2" opacity="1" style="filter:url(#shadow_0)"/><path transform="translate(6,42.24)rotate(0)" d="M2.72 0L2.72-21.64L9.80-21.64L9.80 0L2.72 0ZM6.20-31.60L6.20-31.60Q7.84-31.60 8.90-30.54L8.90-30.54L8.90-30.54Q9.96-29.48 9.96-27.80L9.96-27.80L9.96-27.80Q9.96-26.16 8.90-25.08L8.90-25.08L8.90-25.08Q7.84-24 6.20-24L6.20-24L6.20-24Q4.56-24 3.50-25.08L3.50-25.08L3.50-25.08Q2.44-26.16 2.44-27.80L2.44-27.80L2.44-27.80Q2.44-29.48 3.50-30.54L3.50-30.54L3.50-30.54Q4.56-31.60 6.20-31.60L6.20-31.60ZM34.56-19.60L34.56-19.60Q32.32-20.92 29.78-21.76L29.78-21.76L29.78-21.76Q27.24-22.60 25.52-22.60L25.52-22.60L25.52-22.60Q24.16-22.60 23.38-22.10L23.38-22.10L23.38-22.10Q22.60-21.60 22.60-20.64L22.60-20.64L22.60-20.64Q22.60-19.72 23.28-19.10L23.28-19.10L23.28-19.10Q23.96-18.48 24.96-18.10L24.96-18.10L24.96-18.10Q25.96-17.72 27.92-17.12L27.92-17.12L27.92-17.12Q30.84-16.28 32.74-15.44L32.74-15.44L32.74-15.44Q34.64-14.60 36-12.86L36-12.86L36-12.86Q37.36-11.12 37.36-8.32L37.36-8.32L37.36-8.32Q37.36-5.52 35.88-3.54L35.88-3.54L35.88-3.54Q34.40-1.56 31.82-0.56L31.82-0.56L31.82-0.56Q29.24 0.44 26.08 0.44L26.08 0.44L26.08 0.44Q22.60 0.44 19.14-0.78L19.14-0.78L19.14-0.78Q15.68-2 13.16-4.12L13.16-4.12L16-9.84L16-9.84Q18.12-7.96 21.02-6.76L21.02-6.76L21.02-6.76Q23.92-5.56 26.16-5.56L26.16-5.56L26.16-5.56Q27.80-5.56 28.74-6.16L28.74-6.16L28.74-6.16Q29.68-6.76 29.68-7.92L29.68-7.92L29.68-7.92Q29.68-8.88 28.98-9.52L28.98-9.52L28.98-9.52Q28.28-10.16 27.22-10.54L27.22-10.54L27.22-10.54Q26.16-10.92 24.24-11.44L24.24-11.44L24.24-11.44Q21.36-12.24 19.48-13.06L19.48-13.06L19.48-13.06Q17.60-13.88 16.26-15.54L16.26-15.54L16.26-15.54Q14.92-17.20 14.92-19.96L14.92-19.96L14.92-19.96Q14.92-22.56 16.30-24.52L16.30-24.52L16.30-24.52Q17.68-26.48 20.22-27.54L20.22-27.54L20.22-27.54Q22.76-28.60 26.12-28.60L26.12-28.60L26.12-28.60Q29.16-28.60 32.12-27.74L32.12-27.74L32.12-27.74Q35.08-26.88 37.32-25.44L37.32-25.44L34.56-19.60ZM41.08 0L41.08-28.04L63.20-28.04L63.20-22.20L48.40-22.20L48.40-16.96L61.76-16.96L61.76-11.16L48.40-11.12L48.40-5.84L63.60-5.84L63.60 0L41.08 0ZM93.20 0L84.92 0L80.84-7.76L80.68-7.76L75.40-7.76L75.40 0L68.08 0L68.08-28.04L80.68-28.04L80.68-28.04Q86.24-28.04 89.30-25.46L89.30-25.46L89.30-25.46Q92.36-22.88 92.36-18.20L92.36-18.20L92.36-18.20Q92.36-15.04 91.08-12.74L91.08-12.74L91.08-12.74Q89.80-10.44 87.36-9.16L87.36-9.16L93.20 0ZM75.40-22.20L75.40-13.60L80.72-13.60L80.72-13.60Q82.96-13.60 84.18-14.72L84.18-14.72L84.18-14.72Q85.40-15.84 85.40-17.96L85.40-17.96L85.40-17.96Q85.40-20 84.18-21.10L84.18-21.10L84.18-21.10Q82.96-22.20 80.72-22.20L80.72-22.20L75.40-22.20ZM105.12 0L94.24-28.04L102.12-28.04L109.12-7.76L116.16-28.04L123.68-28.04L112.72 0L105.12 0ZM126.32 0L126.32-28.04L148.44-28.04L148.44-22.20L133.64-22.20L133.64-16.96L147-16.96L147-11.16L133.64-11.12L133.64-5.84L148.84-5.84L148.84 0L126.32 0Z" fill="none" stroke="#ffffff" stroke-width="5" stroke-linejoin="round" stroke-miterlimit="2"/><path transform="translate(6,42.24)rotate(0)" d="M2.72 0L2.72-21.64L9.80-21.64L9.80 0L2.72 0ZM6.20-31.60L6.20-31.60Q7.84-31.60 8.90-30.54L8.90-30.54L8.90-30.54Q9.96-29.48 9.96-27.80L9.96-27.80L9.96-27.80Q9.96-26.16 8.90-25.08L8.90-25.08L8.90-25.08Q7.84-24 6.20-24L6.20-24L6.20-24Q4.56-24 3.50-25.08L3.50-25.08L3.50-25.08Q2.44-26.16 2.44-27.80L2.44-27.80L2.44-27.80Q2.44-29.48 3.50-30.54L3.50-30.54L3.50-30.54Q4.56-31.60 6.20-31.60L6.20-31.60ZM34.56-19.60L34.56-19.60Q32.32-20.92 29.78-21.76L29.78-21.76L29.78-21.76Q27.24-22.60 25.52-22.60L25.52-22.60L25.52-22.60Q24.16-22.60 23.38-22.10L23.38-22.10L23.38-22.10Q22.60-21.60 22.60-20.64L22.60-20.64L22.60-20.64Q22.60-19.72 23.28-19.10L23.28-19.10L23.28-19.10Q23.96-18.48 24.96-18.10L24.96-18.10L24.96-18.10Q25.96-17.72 27.92-17.12L27.92-17.12L27.92-17.12Q30.84-16.28 32.74-15.44L32.74-15.44L32.74-15.44Q34.64-14.60 36-12.86L36-12.86L36-12.86Q37.36-11.12 37.36-8.32L37.36-8.32L37.36-8.32Q37.36-5.52 35.88-3.54L35.88-3.54L35.88-3.54Q34.40-1.56 31.82-0.56L31.82-0.56L31.82-0.56Q29.24 0.44 26.08 0.44L26.08 0.44L26.08 0.44Q22.60 0.44 19.14-0.78L19.14-0.78L19.14-0.78Q15.68-2 13.16-4.12L13.16-4.12L16-9.84L16-9.84Q18.12-7.96 21.02-6.76L21.02-6.76L21.02-6.76Q23.92-5.56 26.16-5.56L26.16-5.56L26.16-5.56Q27.80-5.56 28.74-6.16L28.74-6.16L28.74-6.16Q29.68-6.76 29.68-7.92L29.68-7.92L29.68-7.92Q29.68-8.88 28.98-9.52L28.98-9.52L28.98-9.52Q28.28-10.16 27.22-10.54L27.22-10.54L27.22-10.54Q26.16-10.92 24.24-11.44L24.24-11.44L24.24-11.44Q21.36-12.24 19.48-13.06L19.48-13.06L19.48-13.06Q17.60-13.88 16.26-15.54L16.26-15.54L16.26-15.54Q14.92-17.20 14.92-19.96L14.92-19.96L14.92-19.96Q14.92-22.56 16.30-24.52L16.30-24.52L16.30-24.52Q17.68-26.48 20.22-27.54L20.22-27.54L20.22-27.54Q22.76-28.60 26.12-28.60L26.12-28.60L26.12-28.60Q29.16-28.60 32.12-27.74L32.12-27.74L32.12-27.74Q35.08-26.88 37.32-25.44L37.32-25.44L34.56-19.60ZM41.08 0L41.08-28.04L63.20-28.04L63.20-22.20L48.40-22.20L48.40-16.96L61.76-16.96L61.76-11.16L48.40-11.12L48.40-5.84L63.60-5.84L63.60 0L41.08 0ZM93.20 0L84.92 0L80.84-7.76L80.68-7.76L75.40-7.76L75.40 0L68.08 0L68.08-28.04L80.68-28.04L80.68-28.04Q86.24-28.04 89.30-25.46L89.30-25.46L89.30-25.46Q92.36-22.88 92.36-18.20L92.36-18.20L92.36-18.20Q92.36-15.04 91.08-12.74L91.08-12.74L91.08-12.74Q89.80-10.44 87.36-9.16L87.36-9.16L93.20 0ZM75.40-22.20L75.40-13.60L80.72-13.60L80.72-13.60Q82.96-13.60 84.18-14.72L84.18-14.72L84.18-14.72Q85.40-15.84 85.40-17.96L85.40-17.96L85.40-17.96Q85.40-20 84.18-21.10L84.18-21.10L84.18-21.10Q82.96-22.20 80.72-22.20L80.72-22.20L75.40-22.20ZM105.12 0L94.24-28.04L102.12-28.04L109.12-7.76L116.16-28.04L123.68-28.04L112.72 0L105.12 0ZM126.32 0L126.32-28.04L148.44-28.04L148.44-22.20L133.64-22.20L133.64-16.96L147-16.96L147-11.16L133.64-11.12L133.64-5.84L148.84-5.84L148.84 0L126.32 0Z" fill="#b086f7"/></g><g transform="translate(2.640007019042997,42.76876876876872)translate(79.18954922558412,6.653724362319989)rotate(0)translate(-79.18954922558412,-6.653724362319989)" opacity="1"><path transform="translate(3,10.486763474159236)rotate(0)" d="M4.08-7.17L4.08-7.17Q5.18-7.17 5.81-6.69L5.81-6.69L5.81-6.69Q6.44-6.21 6.44-5.37L6.44-5.37L6.44-5.37Q6.44-4.76 6.09-4.34L6.09-4.34L6.09-4.34Q5.74-3.91 5.14-3.77L5.14-3.77L5.14-3.77Q5.89-3.65 6.31-3.17L6.31-3.17L6.31-3.17Q6.74-2.68 6.74-1.96L6.74-1.96L6.74-1.96Q6.74-1.03 6.04-0.52L6.04-0.52L6.04-0.52Q5.35 0 4.14 0L4.14 0L1.02 0L1.02-7.17L4.08-7.17ZM4.03-4.13L4.03-4.13Q4.70-4.13 5.06-4.41L5.06-4.41L5.06-4.41Q5.43-4.69 5.43-5.21L5.43-5.21L5.43-5.21Q5.43-5.72 5.06-6.00L5.06-6.00L5.06-6.00Q4.70-6.27 4.03-6.26L4.03-6.26L2.01-6.26L2.01-4.13L4.03-4.13ZM4.03-0.90L4.03-0.90Q4.83-0.89 5.28-1.20L5.28-1.20L5.28-1.20Q5.73-1.52 5.73-2.08L5.73-2.08L5.73-2.08Q5.73-2.62 5.28-2.93L5.28-2.93L5.28-2.93Q4.83-3.23 4.03-3.23L4.03-3.23L2.01-3.23L2.01-0.90L4.03-0.90ZM12.05-5.42L13.01-5.42L13.01 0L12.05 0L12.05-1.15L12.05-1.15Q11.52 0.01 10.04 0.03L10.04 0.03L10.04 0.03Q9.10 0.03 8.57-0.53L8.57-0.53L8.57-0.53Q8.04-1.09 8.04-2.07L8.04-2.07L8.04-5.42L9.00-5.42L9.00-2.32L9.00-2.32Q9.00-1.64 9.37-1.25L9.37-1.25L9.37-1.25Q9.75-0.87 10.40-0.87L10.40-0.87L10.40-0.87Q11.16-0.88 11.60-1.41L11.60-1.41L11.60-1.41Q12.05-1.93 12.05-2.75L12.05-2.75L12.05-5.42ZM17.82-4.22L17.82-4.22Q17.48-4.42 17.08-4.55L17.08-4.55L17.08-4.55Q16.68-4.67 16.31-4.67L16.31-4.67L16.31-4.67Q15.88-4.67 15.62-4.51L15.62-4.51L15.62-4.51Q15.35-4.35 15.35-4.02L15.35-4.02L15.35-4.02Q15.35-3.70 15.65-3.53L15.65-3.53L15.65-3.53Q15.94-3.36 16.53-3.18L16.53-3.18L16.53-3.18Q17.09-3.02 17.45-2.86L17.45-2.86L17.45-2.86Q17.81-2.69 18.06-2.37L18.06-2.37L18.06-2.37Q18.31-2.06 18.31-1.54L18.31-1.54L18.31-1.54Q18.31-0.77 17.73-0.37L17.73-0.37L17.73-0.37Q17.16 0.03 16.30 0.03L16.30 0.03L16.30 0.03Q15.69 0.03 15.12-0.16L15.12-0.16L15.12-0.16Q14.56-0.36 14.17-0.72L14.17-0.72L14.53-1.41L14.53-1.41Q14.86-1.11 15.36-0.92L15.36-0.92L15.36-0.92Q15.86-0.74 16.33-0.74L16.33-0.74L16.33-0.74Q16.80-0.74 17.08-0.91L17.08-0.91L17.08-0.91Q17.37-1.09 17.37-1.44L17.37-1.44L17.37-1.44Q17.37-1.81 17.07-2.00L17.07-2.00L17.07-2.00Q16.77-2.18 16.15-2.36L16.15-2.36L16.15-2.36Q15.61-2.52 15.27-2.68L15.27-2.68L15.27-2.68Q14.92-2.84 14.68-3.14L14.68-3.14L14.68-3.14Q14.44-3.45 14.44-3.94L14.44-3.94L14.44-3.94Q14.44-4.70 15.00-5.08L15.00-5.08L15.00-5.08Q15.55-5.46 16.38-5.46L16.38-5.46L16.38-5.46Q16.87-5.46 17.35-5.32L17.35-5.32L17.35-5.32Q17.82-5.18 18.17-4.94L18.17-4.94L17.82-4.22ZM19.57 0L19.57-5.42L20.52-5.42L20.52 0L19.57 0ZM20.04-7.58L20.04-7.58Q20.30-7.58 20.47-7.40L20.47-7.40L20.47-7.40Q20.64-7.23 20.64-6.96L20.64-6.96L20.64-6.96Q20.64-6.69 20.47-6.52L20.47-6.52L20.47-6.52Q20.30-6.35 20.04-6.35L20.04-6.35L20.04-6.35Q19.79-6.35 19.62-6.52L19.62-6.52L19.62-6.52Q19.45-6.69 19.45-6.96L19.45-6.96L19.45-6.96Q19.45-7.23 19.62-7.40L19.62-7.40L19.62-7.40Q19.79-7.58 20.04-7.58L20.04-7.58ZM25.39-5.45L25.39-5.45Q26.34-5.45 26.88-4.89L26.88-4.89L26.88-4.89Q27.42-4.33 27.42-3.35L27.42-3.35L27.42 0L26.47 0L26.47-3.09L26.47-3.09Q26.47-3.78 26.09-4.16L26.09-4.16L26.09-4.16Q25.70-4.55 25.03-4.55L25.03-4.55L25.03-4.55Q24.30-4.53 23.85-4.08L23.85-4.08L23.85-4.08Q23.39-3.62 23.33-2.90L23.33-2.90L23.33 0L22.38 0L22.38-5.42L23.33-5.42L23.33-4.27L23.33-4.27Q23.87-5.43 25.39-5.45L25.39-5.45ZM31.29-5.45L31.29-5.45Q32.55-5.45 33.20-4.70L33.20-4.70L33.20-4.70Q33.84-3.96 33.84-2.64L33.84-2.64L33.84-2.64Q33.84-2.44 33.83-2.33L33.83-2.33L29.55-2.33L29.55-2.33Q29.67-1.61 30.16-1.18L30.16-1.18L30.16-1.18Q30.66-0.75 31.39-0.75L31.39-0.75L31.39-0.75Q31.87-0.75 32.28-0.92L32.28-0.92L32.28-0.92Q32.70-1.10 33.00-1.41L33.00-1.41L33.52-0.87L33.52-0.87Q33.13-0.44 32.56-0.20L32.56-0.20L32.56-0.20Q32.00 0.03 31.31 0.03L31.31 0.03L31.31 0.03Q30.52 0.03 29.90-0.31L29.90-0.31L29.90-0.31Q29.28-0.66 28.93-1.28L28.93-1.28L28.93-1.28Q28.59-1.90 28.59-2.70L28.59-2.70L28.59-2.70Q28.59-3.50 28.93-4.12L28.93-4.12L28.93-4.12Q29.28-4.74 29.89-5.09L29.89-5.09L29.89-5.09Q30.50-5.45 31.29-5.45L31.29-5.45ZM29.54-3.07L32.98-3.07L32.98-3.07Q32.94-3.81 32.49-4.23L32.49-4.23L32.49-4.23Q32.04-4.66 31.30-4.66L31.30-4.66L31.30-4.66Q30.59-4.66 30.11-4.23L30.11-4.23L30.11-4.23Q29.63-3.80 29.54-3.07L29.54-3.07ZM38.10-4.22L38.10-4.22Q37.76-4.42 37.36-4.55L37.36-4.55L37.36-4.55Q36.95-4.67 36.59-4.67L36.59-4.67L36.59-4.67Q36.16-4.67 35.89-4.51L35.89-4.51L35.89-4.51Q35.63-4.35 35.63-4.02L35.63-4.02L35.63-4.02Q35.63-3.70 35.92-3.53L35.92-3.53L35.92-3.53Q36.22-3.36 36.81-3.18L36.81-3.18L36.81-3.18Q37.37-3.02 37.73-2.86L37.73-2.86L37.73-2.86Q38.09-2.69 38.34-2.37L38.34-2.37L38.34-2.37Q38.59-2.06 38.59-1.54L38.59-1.54L38.59-1.54Q38.59-0.77 38.01-0.37L38.01-0.37L38.01-0.37Q37.43 0.03 36.58 0.03L36.58 0.03L36.58 0.03Q35.97 0.03 35.40-0.16L35.40-0.16L35.40-0.16Q34.83-0.36 34.45-0.72L34.45-0.72L34.80-1.41L34.80-1.41Q35.14-1.11 35.64-0.92L35.64-0.92L35.64-0.92Q36.13-0.74 36.61-0.74L36.61-0.74L36.61-0.74Q37.08-0.74 37.36-0.91L37.36-0.91L37.36-0.91Q37.65-1.09 37.65-1.44L37.65-1.44L37.65-1.44Q37.65-1.81 37.35-2.00L37.35-2.00L37.35-2.00Q37.05-2.18 36.43-2.36L36.43-2.36L36.43-2.36Q35.89-2.52 35.55-2.68L35.55-2.68L35.55-2.68Q35.20-2.84 34.96-3.14L34.96-3.14L34.96-3.14Q34.72-3.45 34.72-3.94L34.72-3.94L34.72-3.94Q34.72-4.70 35.27-5.08L35.27-5.08L35.27-5.08Q35.83-5.46 36.66-5.46L36.66-5.46L36.66-5.46Q37.15-5.46 37.62-5.32L37.62-5.32L37.62-5.32Q38.10-5.18 38.45-4.94L38.45-4.94L38.10-4.22ZM42.81-4.22L42.81-4.22Q42.47-4.42 42.07-4.55L42.07-4.55L42.07-4.55Q41.66-4.67 41.29-4.67L41.29-4.67L41.29-4.67Q40.86-4.67 40.60-4.51L40.60-4.51L40.60-4.51Q40.34-4.35 40.34-4.02L40.34-4.02L40.34-4.02Q40.34-3.70 40.63-3.53L40.63-3.53L40.63-3.53Q40.93-3.36 41.52-3.18L41.52-3.18L41.52-3.18Q42.08-3.02 42.44-2.86L42.44-2.86L42.44-2.86Q42.80-2.69 43.05-2.37L43.05-2.37L43.05-2.37Q43.30-2.06 43.30-1.54L43.30-1.54L43.30-1.54Q43.30-0.77 42.72-0.37L42.72-0.37L42.72-0.37Q42.14 0.03 41.28 0.03L41.28 0.03L41.28 0.03Q40.68 0.03 40.11-0.16L40.11-0.16L40.11-0.16Q39.54-0.36 39.15-0.72L39.15-0.72L39.51-1.41L39.51-1.41Q39.85-1.11 40.35-0.92L40.35-0.92L40.35-0.92Q40.84-0.74 41.31-0.74L41.31-0.74L41.31-0.74Q41.79-0.74 42.07-0.91L42.07-0.91L42.07-0.91Q42.36-1.09 42.36-1.44L42.36-1.44L42.36-1.44Q42.36-1.81 42.06-2.00L42.06-2.00L42.06-2.00Q41.75-2.18 41.14-2.36L41.14-2.36L41.14-2.36Q40.60-2.52 40.26-2.68L40.26-2.68L40.26-2.68Q39.91-2.84 39.67-3.14L39.67-3.14L39.67-3.14Q39.43-3.45 39.43-3.94L39.43-3.94L39.43-3.94Q39.43-4.70 39.98-5.08L39.98-5.08L39.98-5.08Q40.54-5.46 41.37-5.46L41.37-5.46L41.37-5.46Q41.86-5.46 42.33-5.32L42.33-5.32L42.33-5.32Q42.81-5.18 43.16-4.94L43.16-4.94L42.81-4.22ZM50.10-7.17L50.10-7.17Q51.44-7.17 52.17-6.53L52.17-6.53L52.17-6.53Q52.90-5.90 52.90-4.75L52.90-4.75L52.90-4.75Q52.90-3.55 52.17-2.89L52.17-2.89L52.17-2.89Q51.43-2.23 50.10-2.23L50.10-2.23L48.32-2.23L48.32 0L47.33 0L47.33-7.17L50.10-7.17ZM50.06-3.12L50.06-3.12Q50.98-3.12 51.47-3.53L51.47-3.53L51.47-3.53Q51.96-3.93 51.96-4.72L51.96-4.72L51.96-4.72Q51.96-5.49 51.47-5.88L51.47-5.88L51.47-5.88Q50.98-6.27 50.06-6.27L50.06-6.27L48.32-6.26L48.32-3.12L50.06-3.12ZM55.06-4.25L55.06-4.25Q55.33-4.83 55.82-5.13L55.82-5.13L55.82-5.13Q56.31-5.44 56.99-5.45L56.99-5.45L56.99-4.52L56.99-4.52Q56.16-4.56 55.65-4.09L55.65-4.09L55.65-4.09Q55.13-3.63 55.06-2.86L55.06-2.86L55.06 0L54.11 0L54.11-5.42L55.06-5.42L55.06-4.25ZM60.27-5.45L60.27-5.45Q61.08-5.45 61.71-5.10L61.71-5.10L61.71-5.10Q62.34-4.75 62.69-4.13L62.69-4.13L62.69-4.13Q63.05-3.51 63.05-2.71L63.05-2.71L63.05-2.71Q63.05-1.91 62.69-1.29L62.69-1.29L62.69-1.29Q62.34-0.67 61.71-0.32L61.71-0.32L61.71-0.32Q61.08 0.03 60.27 0.03L60.27 0.03L60.27 0.03Q59.45 0.03 58.82-0.32L58.82-0.32L58.82-0.32Q58.19-0.67 57.84-1.28L57.84-1.28L57.84-1.28Q57.49-1.90 57.49-2.71L57.49-2.71L57.49-2.71Q57.49-3.51 57.84-4.13L57.84-4.13L57.84-4.13Q58.19-4.75 58.82-5.10L58.82-5.10L58.82-5.10Q59.45-5.45 60.27-5.45L60.27-5.45ZM60.27-4.62L60.27-4.62Q59.74-4.62 59.33-4.37L59.33-4.37L59.33-4.37Q58.91-4.13 58.68-3.69L58.68-3.69L58.68-3.69Q58.45-3.26 58.45-2.70L58.45-2.70L58.45-2.70Q58.45-2.14 58.68-1.70L58.68-1.70L58.68-1.70Q58.91-1.26 59.33-1.02L59.33-1.02L59.33-1.02Q59.74-0.78 60.27-0.78L60.27-0.78L60.27-0.78Q60.79-0.78 61.21-1.02L61.21-1.02L61.21-1.02Q61.62-1.26 61.85-1.70L61.85-1.70L61.85-1.70Q62.08-2.14 62.08-2.70L62.08-2.70L62.08-2.70Q62.08-3.26 61.85-3.69L61.85-3.69L61.85-3.69Q61.62-4.13 61.21-4.37L61.21-4.37L61.21-4.37Q60.79-4.62 60.27-4.62L60.27-4.62ZM68.18-3.97L68.18-3.97Q67.53-4.60 66.63-4.60L66.63-4.60L66.63-4.60Q66.10-4.60 65.68-4.36L65.68-4.36L65.68-4.36Q65.27-4.13 65.03-3.70L65.03-3.70L65.03-3.70Q64.80-3.27 64.80-2.70L64.80-2.70L64.80-2.70Q64.80-2.14 65.03-1.71L65.03-1.71L65.03-1.71Q65.26-1.28 65.66-1.04L65.66-1.04L65.66-1.04Q66.07-0.80 66.59-0.80L66.59-0.80L66.59-0.80Q67.11-0.80 67.53-0.97L67.53-0.97L67.53-0.97Q67.95-1.15 68.23-1.47L68.23-1.47L68.77-0.92L68.77-0.92Q68.40-0.46 67.83-0.21L67.83-0.21L67.83-0.21Q67.26 0.03 66.55 0.03L66.55 0.03L66.55 0.03Q65.76 0.03 65.15-0.32L65.15-0.32L65.15-0.32Q64.53-0.67 64.19-1.28L64.19-1.28L64.19-1.28Q63.85-1.90 63.85-2.70L63.85-2.70L63.85-2.70Q63.85-3.50 64.19-4.13L64.19-4.13L64.19-4.13Q64.53-4.75 65.15-5.10L65.15-5.10L65.15-5.10Q65.76-5.45 66.55-5.45L66.55-5.45L66.55-5.45Q67.23-5.45 67.78-5.24L67.78-5.24L67.78-5.24Q68.33-5.03 68.70-4.63L68.70-4.63L68.18-3.97ZM72.30-5.45L72.30-5.45Q73.56-5.45 74.20-4.70L74.20-4.70L74.20-4.70Q74.85-3.96 74.85-2.64L74.85-2.64L74.85-2.64Q74.85-2.44 74.84-2.33L74.84-2.33L70.56-2.33L70.56-2.33Q70.67-1.61 71.17-1.18L71.17-1.18L71.17-1.18Q71.67-0.75 72.39-0.75L72.39-0.75L72.39-0.75Q72.87-0.75 73.29-0.92L73.29-0.92L73.29-0.92Q73.70-1.10 74.01-1.41L74.01-1.41L74.53-0.87L74.53-0.87Q74.13-0.44 73.57-0.20L73.57-0.20L73.57-0.20Q73.01 0.03 72.32 0.03L72.32 0.03L72.32 0.03Q71.52 0.03 70.90-0.31L70.90-0.31L70.90-0.31Q70.28-0.66 69.94-1.28L69.94-1.28L69.94-1.28Q69.60-1.90 69.60-2.70L69.60-2.70L69.60-2.70Q69.60-3.50 69.94-4.12L69.94-4.12L69.94-4.12Q70.28-4.74 70.90-5.09L70.90-5.09L70.90-5.09Q71.51-5.45 72.30-5.45L72.30-5.45ZM70.55-3.07L73.99-3.07L73.99-3.07Q73.95-3.81 73.50-4.23L73.50-4.23L73.50-4.23Q73.05-4.66 72.31-4.66L72.31-4.66L72.31-4.66Q71.59-4.66 71.12-4.23L71.12-4.23L71.12-4.23Q70.64-3.80 70.55-3.07L70.55-3.07ZM79.11-4.22L79.11-4.22Q78.77-4.42 78.37-4.55L78.37-4.55L78.37-4.55Q77.96-4.67 77.59-4.67L77.59-4.67L77.59-4.67Q77.16-4.67 76.90-4.51L76.90-4.51L76.90-4.51Q76.64-4.35 76.64-4.02L76.64-4.02L76.64-4.02Q76.64-3.70 76.93-3.53L76.93-3.53L76.93-3.53Q77.22-3.36 77.82-3.18L77.82-3.18L77.82-3.18Q78.38-3.02 78.74-2.86L78.74-2.86L78.74-2.86Q79.10-2.69 79.35-2.37L79.35-2.37L79.35-2.37Q79.60-2.06 79.60-1.54L79.60-1.54L79.60-1.54Q79.60-0.77 79.02-0.37L79.02-0.37L79.02-0.37Q78.44 0.03 77.58 0.03L77.58 0.03L77.58 0.03Q76.98 0.03 76.41-0.16L76.41-0.16L76.41-0.16Q75.84-0.36 75.45-0.72L75.45-0.72L75.81-1.41L75.81-1.41Q76.15-1.11 76.65-0.92L76.65-0.92L76.65-0.92Q77.14-0.74 77.61-0.74L77.61-0.74L77.61-0.74Q78.08-0.74 78.37-0.91L78.37-0.91L78.37-0.91Q78.66-1.09 78.66-1.44L78.66-1.44L78.66-1.44Q78.66-1.81 78.36-2.00L78.36-2.00L78.36-2.00Q78.05-2.18 77.44-2.36L77.44-2.36L77.44-2.36Q76.90-2.52 76.55-2.68L76.55-2.68L76.55-2.68Q76.21-2.84 75.97-3.14L75.97-3.14L75.97-3.14Q75.73-3.45 75.73-3.94L75.73-3.94L75.73-3.94Q75.73-4.70 76.28-5.08L76.28-5.08L76.28-5.08Q76.84-5.46 77.66-5.46L77.66-5.46L77.66-5.46Q78.16-5.46 78.63-5.32L78.63-5.32L78.63-5.32Q79.11-5.18 79.46-4.94L79.46-4.94L79.11-4.22ZM83.82-4.22L83.82-4.22Q83.48-4.42 83.07-4.55L83.07-4.55L83.07-4.55Q82.67-4.67 82.30-4.67L82.30-4.67L82.30-4.67Q81.87-4.67 81.61-4.51L81.61-4.51L81.61-4.51Q81.35-4.35 81.35-4.02L81.35-4.02L81.35-4.02Q81.35-3.70 81.64-3.53L81.64-3.53L81.64-3.53Q81.93-3.36 82.53-3.18L82.53-3.18L82.53-3.18Q83.09-3.02 83.45-2.86L83.45-2.86L83.45-2.86Q83.81-2.69 84.06-2.37L84.06-2.37L84.06-2.37Q84.31-2.06 84.31-1.54L84.31-1.54L84.31-1.54Q84.31-0.77 83.73-0.37L83.73-0.37L83.73-0.37Q83.15 0.03 82.29 0.03L82.29 0.03L82.29 0.03Q81.69 0.03 81.12-0.16L81.12-0.16L81.12-0.16Q80.55-0.36 80.16-0.72L80.16-0.72L80.52-1.41L80.52-1.41Q80.86-1.11 81.35-0.92L81.35-0.92L81.35-0.92Q81.85-0.74 82.32-0.74L82.32-0.74L82.32-0.74Q82.79-0.74 83.08-0.91L83.08-0.91L83.08-0.91Q83.37-1.09 83.37-1.44L83.37-1.44L83.37-1.44Q83.37-1.81 83.06-2.00L83.06-2.00L83.06-2.00Q82.76-2.18 82.15-2.36L82.15-2.36L82.15-2.36Q81.61-2.52 81.26-2.68L81.26-2.68L81.26-2.68Q80.92-2.84 80.68-3.14L80.68-3.14L80.68-3.14Q80.44-3.45 80.44-3.94L80.44-3.94L80.44-3.94Q80.44-4.70 80.99-5.08L80.99-5.08L80.99-5.08Q81.54-5.46 82.37-5.46L82.37-5.46L82.37-5.46Q82.86-5.46 83.34-5.32L83.34-5.32L83.34-5.32Q83.82-5.18 84.16-4.94L84.16-4.94L83.82-4.22ZM91.47-7.23L91.47-7.23Q92.51-7.23 93.37-6.75L93.37-6.75L93.37-6.75Q94.24-6.26 94.74-5.43L94.74-5.43L94.74-5.43Q95.24-4.60 95.24-3.59L95.24-3.59L95.24-3.59Q95.24-2.59 94.74-1.75L94.74-1.75L94.74-1.75Q94.24-0.90 93.37-0.41L93.37-0.41L93.37-0.41Q92.51 0.07 91.47 0.07L91.47 0.07L91.47 0.07Q90.44 0.07 89.57-0.41L89.57-0.41L89.57-0.41Q88.71-0.90 88.21-1.75L88.21-1.75L88.21-1.75Q87.71-2.59 87.71-3.59L87.71-3.59L87.71-3.59Q87.71-4.60 88.21-5.43L88.21-5.43L88.21-5.43Q88.71-6.26 89.57-6.75L89.57-6.75L89.57-6.75Q90.43-7.23 91.47-7.23L91.47-7.23ZM91.48-6.35L91.48-6.35Q90.74-6.35 90.10-5.98L90.10-5.98L90.10-5.98Q89.46-5.61 89.08-4.98L89.08-4.98L89.08-4.98Q88.70-4.35 88.70-3.59L88.70-3.59L88.70-3.59Q88.70-2.84 89.08-2.20L89.08-2.20L89.08-2.20Q89.46-1.57 90.10-1.19L90.10-1.19L90.10-1.19Q90.74-0.82 91.48-0.82L91.48-0.82L91.48-0.82Q92.23-0.82 92.86-1.19L92.86-1.19L92.86-1.19Q93.49-1.57 93.86-2.20L93.86-2.20L93.86-2.20Q94.24-2.84 94.24-3.59L94.24-3.59L94.24-3.59Q94.24-4.35 93.86-4.98L93.86-4.98L93.86-4.98Q93.49-5.61 92.86-5.98L92.86-5.98L92.86-5.98Q92.23-6.35 91.48-6.35L91.48-6.35ZM100.39-5.42L101.35-5.42L101.35 0L100.39 0L100.39-1.15L100.39-1.15Q99.86 0.01 98.38 0.03L98.38 0.03L98.38 0.03Q97.44 0.03 96.91-0.53L96.91-0.53L96.91-0.53Q96.38-1.09 96.38-2.07L96.38-2.07L96.38-5.42L97.34-5.42L97.34-2.32L97.34-2.32Q97.34-1.64 97.71-1.25L97.71-1.25L97.71-1.25Q98.09-0.87 98.74-0.87L98.74-0.87L98.74-0.87Q99.50-0.88 99.94-1.41L99.94-1.41L99.94-1.41Q100.39-1.93 100.39-2.75L100.39-2.75L100.39-5.42ZM105.86-1.10L106.11-0.36L106.11-0.36Q105.49 0.04 104.84 0.04L104.84 0.04L104.84 0.04Q104.20 0.04 103.80-0.34L103.80-0.34L103.80-0.34Q103.40-0.73 103.40-1.50L103.40-1.50L103.40-4.50L102.63-4.50L102.63-5.23L103.40-5.23L103.40-6.68L104.36-6.68L104.36-5.23L106.02-5.23L106.02-4.50L104.36-4.50L104.36-1.68L104.36-1.68Q104.36-1.23 104.52-1.03L104.52-1.03L104.52-1.03Q104.69-0.84 105.02-0.84L105.02-0.84L105.02-0.84Q105.41-0.84 105.86-1.10L105.86-1.10ZM110.23-4.22L110.23-4.22Q109.89-4.42 109.48-4.55L109.48-4.55L109.48-4.55Q109.08-4.67 108.71-4.67L108.71-4.67L108.71-4.67Q108.28-4.67 108.02-4.51L108.02-4.51L108.02-4.51Q107.76-4.35 107.76-4.02L107.76-4.02L107.76-4.02Q107.76-3.70 108.05-3.53L108.05-3.53L108.05-3.53Q108.34-3.36 108.94-3.18L108.94-3.18L108.94-3.18Q109.50-3.02 109.86-2.86L109.86-2.86L109.86-2.86Q110.22-2.69 110.47-2.37L110.47-2.37L110.47-2.37Q110.72-2.06 110.72-1.54L110.72-1.54L110.72-1.54Q110.72-0.77 110.14-0.37L110.14-0.37L110.14-0.37Q109.56 0.03 108.70 0.03L108.70 0.03L108.70 0.03Q108.10 0.03 107.53-0.16L107.53-0.16L107.53-0.16Q106.96-0.36 106.57-0.72L106.57-0.72L106.93-1.41L106.93-1.41Q107.27-1.11 107.76-0.92L107.76-0.92L107.76-0.92Q108.26-0.74 108.73-0.74L108.73-0.74L108.73-0.74Q109.20-0.74 109.49-0.91L109.49-0.91L109.49-0.91Q109.78-1.09 109.78-1.44L109.78-1.44L109.78-1.44Q109.78-1.81 109.47-2.00L109.47-2.00L109.47-2.00Q109.17-2.18 108.56-2.36L108.56-2.36L108.56-2.36Q108.02-2.52 107.67-2.68L107.67-2.68L107.67-2.68Q107.33-2.84 107.09-3.14L107.09-3.14L107.09-3.14Q106.85-3.45 106.85-3.94L106.85-3.94L106.85-3.94Q106.85-4.70 107.40-5.08L107.40-5.08L107.40-5.08Q107.95-5.46 108.78-5.46L108.78-5.46L108.78-5.46Q109.27-5.46 109.75-5.32L109.75-5.32L109.75-5.32Q110.23-5.18 110.57-4.94L110.57-4.94L110.23-4.22ZM114.23-5.45L114.23-5.45Q115.04-5.45 115.67-5.10L115.67-5.10L115.67-5.10Q116.30-4.75 116.65-4.13L116.65-4.13L116.65-4.13Q117.00-3.51 117.00-2.71L117.00-2.71L117.00-2.71Q117.00-1.91 116.65-1.29L116.65-1.29L116.65-1.29Q116.30-0.67 115.67-0.32L115.67-0.32L115.67-0.32Q115.04 0.03 114.23 0.03L114.23 0.03L114.23 0.03Q113.41 0.03 112.78-0.32L112.78-0.32L112.78-0.32Q112.15-0.67 111.80-1.28L111.80-1.28L111.80-1.28Q111.44-1.90 111.44-2.71L111.44-2.71L111.44-2.71Q111.44-3.51 111.80-4.13L111.80-4.13L111.80-4.13Q112.15-4.75 112.78-5.10L112.78-5.10L112.78-5.10Q113.41-5.45 114.23-5.45L114.23-5.45ZM114.23-4.62L114.23-4.62Q113.70-4.62 113.28-4.37L113.28-4.37L113.28-4.37Q112.87-4.13 112.64-3.69L112.64-3.69L112.64-3.69Q112.41-3.26 112.41-2.70L112.41-2.70L112.41-2.70Q112.41-2.14 112.64-1.70L112.64-1.70L112.64-1.70Q112.87-1.26 113.28-1.02L113.28-1.02L113.28-1.02Q113.70-0.78 114.23-0.78L114.23-0.78L114.23-0.78Q114.75-0.78 115.17-1.02L115.17-1.02L115.17-1.02Q115.58-1.26 115.81-1.70L115.81-1.70L115.81-1.70Q116.04-2.14 116.04-2.70L116.04-2.70L116.04-2.70Q116.04-3.26 115.81-3.69L115.81-3.69L115.81-3.69Q115.58-4.13 115.17-4.37L115.17-4.37L115.17-4.37Q114.75-4.62 114.23-4.62L114.23-4.62ZM122.16-5.42L123.12-5.42L123.12 0L122.16 0L122.16-1.15L122.16-1.15Q121.63 0.01 120.16 0.03L120.16 0.03L120.16 0.03Q119.21 0.03 118.68-0.53L118.68-0.53L118.68-0.53Q118.15-1.09 118.15-2.07L118.15-2.07L118.15-5.42L119.11-5.42L119.11-2.32L119.11-2.32Q119.11-1.64 119.49-1.25L119.49-1.25L119.49-1.25Q119.86-0.87 120.51-0.87L120.51-0.87L120.51-0.87Q121.27-0.88 121.72-1.41L121.72-1.41L121.72-1.41Q122.16-1.93 122.16-2.75L122.16-2.75L122.16-5.42ZM125.93-4.25L125.93-4.25Q126.20-4.83 126.69-5.13L126.69-5.13L126.69-5.13Q127.18-5.44 127.85-5.45L127.85-5.45L127.85-4.52L127.85-4.52Q127.02-4.56 126.51-4.09L126.51-4.09L126.51-4.09Q126.00-3.63 125.93-2.86L125.93-2.86L125.93 0L124.98 0L124.98-5.42L125.93-5.42L125.93-4.25ZM132.69-3.97L132.69-3.97Q132.04-4.60 131.14-4.60L131.14-4.60L131.14-4.60Q130.61-4.60 130.19-4.36L130.19-4.36L130.19-4.36Q129.78-4.13 129.54-3.70L129.54-3.70L129.54-3.70Q129.31-3.27 129.31-2.70L129.31-2.70L129.31-2.70Q129.31-2.14 129.54-1.71L129.54-1.71L129.54-1.71Q129.77-1.28 130.17-1.04L130.17-1.04L130.17-1.04Q130.58-0.80 131.10-0.80L131.10-0.80L131.10-0.80Q131.62-0.80 132.04-0.97L132.04-0.97L132.04-0.97Q132.46-1.15 132.74-1.47L132.74-1.47L133.28-0.92L133.28-0.92Q132.91-0.46 132.34-0.21L132.34-0.21L132.34-0.21Q131.77 0.03 131.06 0.03L131.06 0.03L131.06 0.03Q130.27 0.03 129.66-0.32L129.66-0.32L129.66-0.32Q129.04-0.67 128.70-1.28L128.70-1.28L128.70-1.28Q128.36-1.90 128.36-2.70L128.36-2.70L128.36-2.70Q128.36-3.50 128.70-4.13L128.70-4.13L128.70-4.13Q129.04-4.75 129.66-5.10L129.66-5.10L129.66-5.10Q130.27-5.45 131.06-5.45L131.06-5.45L131.06-5.45Q131.74-5.45 132.29-5.24L132.29-5.24L132.29-5.24Q132.84-5.03 133.21-4.63L133.21-4.63L132.69-3.97ZM134.64 0L134.64-5.42L135.59-5.42L135.59 0L134.64 0ZM135.11-7.58L135.11-7.58Q135.37-7.58 135.54-7.40L135.54-7.40L135.54-7.40Q135.71-7.23 135.71-6.96L135.71-6.96L135.71-6.96Q135.71-6.69 135.54-6.52L135.54-6.52L135.54-6.52Q135.37-6.35 135.11-6.35L135.11-6.35L135.11-6.35Q134.86-6.35 134.69-6.52L134.69-6.52L134.69-6.52Q134.52-6.69 134.52-6.96L134.52-6.96L134.52-6.96Q134.52-7.23 134.69-7.40L134.69-7.40L134.69-7.40Q134.86-7.58 135.11-7.58L135.11-7.58ZM140.46-5.45L140.46-5.45Q141.41-5.45 141.95-4.89L141.95-4.89L141.95-4.89Q142.49-4.33 142.49-3.35L142.49-3.35L142.49 0L141.54 0L141.54-3.09L141.54-3.09Q141.54-3.78 141.16-4.16L141.16-4.16L141.16-4.16Q140.77-4.55 140.10-4.55L140.10-4.55L140.10-4.55Q139.37-4.53 138.91-4.08L138.91-4.08L138.91-4.08Q138.46-3.62 138.40-2.90L138.40-2.90L138.40 0L137.45 0L137.45-5.42L138.40-5.42L138.40-4.27L138.40-4.27Q138.94-5.43 140.46-5.45L140.46-5.45ZM148.02-5.42L148.98-5.42L148.98-0.55L148.98-0.55Q148.98 0.23 148.64 0.81L148.64 0.81L148.64 0.81Q148.30 1.39 147.67 1.70L147.67 1.70L147.67 1.70Q147.05 2.02 146.22 2.02L146.22 2.02L146.22 2.02Q145.02 2.02 143.99 1.26L143.99 1.26L144.41 0.56L144.41 0.56Q144.81 0.89 145.24 1.05L145.24 1.05L145.24 1.05Q145.67 1.21 146.18 1.21L146.18 1.21L146.18 1.21Q147.02 1.21 147.52 0.74L147.52 0.74L147.52 0.74Q148.02 0.27 148.02-0.52L148.02-0.52L148.02-1.28L148.02-1.28Q147.73-0.79 147.24-0.52L147.24-0.52L147.24-0.52Q146.75-0.25 146.12-0.25L146.12-0.25L146.12-0.25Q145.39-0.25 144.83-0.58L144.83-0.58L144.83-0.58Q144.27-0.91 143.97-1.50L143.97-1.50L143.97-1.50Q143.66-2.10 143.66-2.87L143.66-2.87L143.66-2.87Q143.66-3.62 143.97-4.21L143.97-4.21L143.97-4.21Q144.27-4.79 144.83-5.12L144.83-5.12L144.83-5.12Q145.39-5.45 146.12-5.45L146.12-5.45L146.12-5.45Q146.76-5.45 147.25-5.18L147.25-5.18L147.25-5.18Q147.73-4.91 148.02-4.42L148.02-4.42L148.02-5.42ZM146.30-1.01L146.30-1.01Q146.80-1.01 147.19-1.25L147.19-1.25L147.19-1.25Q147.58-1.48 147.80-1.90L147.80-1.90L147.80-1.90Q148.02-2.31 148.02-2.84L148.02-2.84L148.02-2.84Q148.02-3.37 147.80-3.78L147.80-3.78L147.80-3.78Q147.58-4.20 147.19-4.43L147.19-4.43L147.19-4.43Q146.80-4.67 146.30-4.67L146.30-4.67L146.30-4.67Q145.80-4.67 145.40-4.43L145.40-4.43L145.40-4.43Q145.01-4.20 144.79-3.78L144.79-3.78L144.79-3.78Q144.56-3.37 144.56-2.84L144.56-2.84L144.56-2.84Q144.57-2.04 145.05-1.53L145.05-1.53L145.05-1.53Q145.53-1.01 146.30-1.01L146.30-1.01Z" fill="none" stroke="#ffffff" stroke-width="2" stroke-linejoin="round" stroke-miterlimit="2"/><path transform="translate(3,10.486763474159236)rotate(0)" d="M4.08-7.17L4.08-7.17Q5.18-7.17 5.81-6.69L5.81-6.69L5.81-6.69Q6.44-6.21 6.44-5.37L6.44-5.37L6.44-5.37Q6.44-4.76 6.09-4.34L6.09-4.34L6.09-4.34Q5.74-3.91 5.14-3.77L5.14-3.77L5.14-3.77Q5.89-3.65 6.31-3.17L6.31-3.17L6.31-3.17Q6.74-2.68 6.74-1.96L6.74-1.96L6.74-1.96Q6.74-1.03 6.04-0.52L6.04-0.52L6.04-0.52Q5.35 0 4.14 0L4.14 0L1.02 0L1.02-7.17L4.08-7.17ZM4.03-4.13L4.03-4.13Q4.70-4.13 5.06-4.41L5.06-4.41L5.06-4.41Q5.43-4.69 5.43-5.21L5.43-5.21L5.43-5.21Q5.43-5.72 5.06-6.00L5.06-6.00L5.06-6.00Q4.70-6.27 4.03-6.26L4.03-6.26L2.01-6.26L2.01-4.13L4.03-4.13ZM4.03-0.90L4.03-0.90Q4.83-0.89 5.28-1.20L5.28-1.20L5.28-1.20Q5.73-1.52 5.73-2.08L5.73-2.08L5.73-2.08Q5.73-2.62 5.28-2.93L5.28-2.93L5.28-2.93Q4.83-3.23 4.03-3.23L4.03-3.23L2.01-3.23L2.01-0.90L4.03-0.90ZM12.05-5.42L13.01-5.42L13.01 0L12.05 0L12.05-1.15L12.05-1.15Q11.52 0.01 10.04 0.03L10.04 0.03L10.04 0.03Q9.10 0.03 8.57-0.53L8.57-0.53L8.57-0.53Q8.04-1.09 8.04-2.07L8.04-2.07L8.04-5.42L9.00-5.42L9.00-2.32L9.00-2.32Q9.00-1.64 9.37-1.25L9.37-1.25L9.37-1.25Q9.75-0.87 10.40-0.87L10.40-0.87L10.40-0.87Q11.16-0.88 11.60-1.41L11.60-1.41L11.60-1.41Q12.05-1.93 12.05-2.75L12.05-2.75L12.05-5.42ZM17.82-4.22L17.82-4.22Q17.48-4.42 17.08-4.55L17.08-4.55L17.08-4.55Q16.68-4.67 16.31-4.67L16.31-4.67L16.31-4.67Q15.88-4.67 15.62-4.51L15.62-4.51L15.62-4.51Q15.35-4.35 15.35-4.02L15.35-4.02L15.35-4.02Q15.35-3.70 15.65-3.53L15.65-3.53L15.65-3.53Q15.94-3.36 16.53-3.18L16.53-3.18L16.53-3.18Q17.09-3.02 17.45-2.86L17.45-2.86L17.45-2.86Q17.81-2.69 18.06-2.37L18.06-2.37L18.06-2.37Q18.31-2.06 18.31-1.54L18.31-1.54L18.31-1.54Q18.31-0.77 17.73-0.37L17.73-0.37L17.73-0.37Q17.16 0.03 16.30 0.03L16.30 0.03L16.30 0.03Q15.69 0.03 15.12-0.16L15.12-0.16L15.12-0.16Q14.56-0.36 14.17-0.72L14.17-0.72L14.53-1.41L14.53-1.41Q14.86-1.11 15.36-0.92L15.36-0.92L15.36-0.92Q15.86-0.74 16.33-0.74L16.33-0.74L16.33-0.74Q16.80-0.74 17.08-0.91L17.08-0.91L17.08-0.91Q17.37-1.09 17.37-1.44L17.37-1.44L17.37-1.44Q17.37-1.81 17.07-2.00L17.07-2.00L17.07-2.00Q16.77-2.18 16.15-2.36L16.15-2.36L16.15-2.36Q15.61-2.52 15.27-2.68L15.27-2.68L15.27-2.68Q14.92-2.84 14.68-3.14L14.68-3.14L14.68-3.14Q14.44-3.45 14.44-3.94L14.44-3.94L14.44-3.94Q14.44-4.70 15.00-5.08L15.00-5.08L15.00-5.08Q15.55-5.46 16.38-5.46L16.38-5.46L16.38-5.46Q16.87-5.46 17.35-5.32L17.35-5.32L17.35-5.32Q17.82-5.18 18.17-4.94L18.17-4.94L17.82-4.22ZM19.57 0L19.57-5.42L20.52-5.42L20.52 0L19.57 0ZM20.04-7.58L20.04-7.58Q20.30-7.58 20.47-7.40L20.47-7.40L20.47-7.40Q20.64-7.23 20.64-6.96L20.64-6.96L20.64-6.96Q20.64-6.69 20.47-6.52L20.47-6.52L20.47-6.52Q20.30-6.35 20.04-6.35L20.04-6.35L20.04-6.35Q19.79-6.35 19.62-6.52L19.62-6.52L19.62-6.52Q19.45-6.69 19.45-6.96L19.45-6.96L19.45-6.96Q19.45-7.23 19.62-7.40L19.62-7.40L19.62-7.40Q19.79-7.58 20.04-7.58L20.04-7.58ZM25.39-5.45L25.39-5.45Q26.34-5.45 26.88-4.89L26.88-4.89L26.88-4.89Q27.42-4.33 27.42-3.35L27.42-3.35L27.42 0L26.47 0L26.47-3.09L26.47-3.09Q26.47-3.78 26.09-4.16L26.09-4.16L26.09-4.16Q25.70-4.55 25.03-4.55L25.03-4.55L25.03-4.55Q24.30-4.53 23.85-4.08L23.85-4.08L23.85-4.08Q23.39-3.62 23.33-2.90L23.33-2.90L23.33 0L22.38 0L22.38-5.42L23.33-5.42L23.33-4.27L23.33-4.27Q23.87-5.43 25.39-5.45L25.39-5.45ZM31.29-5.45L31.29-5.45Q32.55-5.45 33.20-4.70L33.20-4.70L33.20-4.70Q33.84-3.96 33.84-2.64L33.84-2.64L33.84-2.64Q33.84-2.44 33.83-2.33L33.83-2.33L29.55-2.33L29.55-2.33Q29.67-1.61 30.16-1.18L30.16-1.18L30.16-1.18Q30.66-0.75 31.39-0.75L31.39-0.75L31.39-0.75Q31.87-0.75 32.28-0.92L32.28-0.92L32.28-0.92Q32.70-1.10 33.00-1.41L33.00-1.41L33.52-0.87L33.52-0.87Q33.13-0.44 32.56-0.20L32.56-0.20L32.56-0.20Q32.00 0.03 31.31 0.03L31.31 0.03L31.31 0.03Q30.52 0.03 29.90-0.31L29.90-0.31L29.90-0.31Q29.28-0.66 28.93-1.28L28.93-1.28L28.93-1.28Q28.59-1.90 28.59-2.70L28.59-2.70L28.59-2.70Q28.59-3.50 28.93-4.12L28.93-4.12L28.93-4.12Q29.28-4.74 29.89-5.09L29.89-5.09L29.89-5.09Q30.50-5.45 31.29-5.45L31.29-5.45ZM29.54-3.07L32.98-3.07L32.98-3.07Q32.94-3.81 32.49-4.23L32.49-4.23L32.49-4.23Q32.04-4.66 31.30-4.66L31.30-4.66L31.30-4.66Q30.59-4.66 30.11-4.23L30.11-4.23L30.11-4.23Q29.63-3.80 29.54-3.07L29.54-3.07ZM38.10-4.22L38.10-4.22Q37.76-4.42 37.36-4.55L37.36-4.55L37.36-4.55Q36.95-4.67 36.59-4.67L36.59-4.67L36.59-4.67Q36.16-4.67 35.89-4.51L35.89-4.51L35.89-4.51Q35.63-4.35 35.63-4.02L35.63-4.02L35.63-4.02Q35.63-3.70 35.92-3.53L35.92-3.53L35.92-3.53Q36.22-3.36 36.81-3.18L36.81-3.18L36.81-3.18Q37.37-3.02 37.73-2.86L37.73-2.86L37.73-2.86Q38.09-2.69 38.34-2.37L38.34-2.37L38.34-2.37Q38.59-2.06 38.59-1.54L38.59-1.54L38.59-1.54Q38.59-0.77 38.01-0.37L38.01-0.37L38.01-0.37Q37.43 0.03 36.58 0.03L36.58 0.03L36.58 0.03Q35.97 0.03 35.40-0.16L35.40-0.16L35.40-0.16Q34.83-0.36 34.45-0.72L34.45-0.72L34.80-1.41L34.80-1.41Q35.14-1.11 35.64-0.92L35.64-0.92L35.64-0.92Q36.13-0.74 36.61-0.74L36.61-0.74L36.61-0.74Q37.08-0.74 37.36-0.91L37.36-0.91L37.36-0.91Q37.65-1.09 37.65-1.44L37.65-1.44L37.65-1.44Q37.65-1.81 37.35-2.00L37.35-2.00L37.35-2.00Q37.05-2.18 36.43-2.36L36.43-2.36L36.43-2.36Q35.89-2.52 35.55-2.68L35.55-2.68L35.55-2.68Q35.20-2.84 34.96-3.14L34.96-3.14L34.96-3.14Q34.72-3.45 34.72-3.94L34.72-3.94L34.72-3.94Q34.72-4.70 35.27-5.08L35.27-5.08L35.27-5.08Q35.83-5.46 36.66-5.46L36.66-5.46L36.66-5.46Q37.15-5.46 37.62-5.32L37.62-5.32L37.62-5.32Q38.10-5.18 38.45-4.94L38.45-4.94L38.10-4.22ZM42.81-4.22L42.81-4.22Q42.47-4.42 42.07-4.55L42.07-4.55L42.07-4.55Q41.66-4.67 41.29-4.67L41.29-4.67L41.29-4.67Q40.86-4.67 40.60-4.51L40.60-4.51L40.60-4.51Q40.34-4.35 40.34-4.02L40.34-4.02L40.34-4.02Q40.34-3.70 40.63-3.53L40.63-3.53L40.63-3.53Q40.93-3.36 41.52-3.18L41.52-3.18L41.52-3.18Q42.08-3.02 42.44-2.86L42.44-2.86L42.44-2.86Q42.80-2.69 43.05-2.37L43.05-2.37L43.05-2.37Q43.30-2.06 43.30-1.54L43.30-1.54L43.30-1.54Q43.30-0.77 42.72-0.37L42.72-0.37L42.72-0.37Q42.14 0.03 41.28 0.03L41.28 0.03L41.28 0.03Q40.68 0.03 40.11-0.16L40.11-0.16L40.11-0.16Q39.54-0.36 39.15-0.72L39.15-0.72L39.51-1.41L39.51-1.41Q39.85-1.11 40.35-0.92L40.35-0.92L40.35-0.92Q40.84-0.74 41.31-0.74L41.31-0.74L41.31-0.74Q41.79-0.74 42.07-0.91L42.07-0.91L42.07-0.91Q42.36-1.09 42.36-1.44L42.36-1.44L42.36-1.44Q42.36-1.81 42.06-2.00L42.06-2.00L42.06-2.00Q41.75-2.18 41.14-2.36L41.14-2.36L41.14-2.36Q40.60-2.52 40.26-2.68L40.26-2.68L40.26-2.68Q39.91-2.84 39.67-3.14L39.67-3.14L39.67-3.14Q39.43-3.45 39.43-3.94L39.43-3.94L39.43-3.94Q39.43-4.70 39.98-5.08L39.98-5.08L39.98-5.08Q40.54-5.46 41.37-5.46L41.37-5.46L41.37-5.46Q41.86-5.46 42.33-5.32L42.33-5.32L42.33-5.32Q42.81-5.18 43.16-4.94L43.16-4.94L42.81-4.22ZM50.10-7.17L50.10-7.17Q51.44-7.17 52.17-6.53L52.17-6.53L52.17-6.53Q52.90-5.90 52.90-4.75L52.90-4.75L52.90-4.75Q52.90-3.55 52.17-2.89L52.17-2.89L52.17-2.89Q51.43-2.23 50.10-2.23L50.10-2.23L48.32-2.23L48.32 0L47.33 0L47.33-7.17L50.10-7.17ZM50.06-3.12L50.06-3.12Q50.98-3.12 51.47-3.53L51.47-3.53L51.47-3.53Q51.96-3.93 51.96-4.72L51.96-4.72L51.96-4.72Q51.96-5.49 51.47-5.88L51.47-5.88L51.47-5.88Q50.98-6.27 50.06-6.27L50.06-6.27L48.32-6.26L48.32-3.12L50.06-3.12ZM55.06-4.25L55.06-4.25Q55.33-4.83 55.82-5.13L55.82-5.13L55.82-5.13Q56.31-5.44 56.99-5.45L56.99-5.45L56.99-4.52L56.99-4.52Q56.16-4.56 55.65-4.09L55.65-4.09L55.65-4.09Q55.13-3.63 55.06-2.86L55.06-2.86L55.06 0L54.11 0L54.11-5.42L55.06-5.42L55.06-4.25ZM60.27-5.45L60.27-5.45Q61.08-5.45 61.71-5.10L61.71-5.10L61.71-5.10Q62.34-4.75 62.69-4.13L62.69-4.13L62.69-4.13Q63.05-3.51 63.05-2.71L63.05-2.71L63.05-2.71Q63.05-1.91 62.69-1.29L62.69-1.29L62.69-1.29Q62.34-0.67 61.71-0.32L61.71-0.32L61.71-0.32Q61.08 0.03 60.27 0.03L60.27 0.03L60.27 0.03Q59.45 0.03 58.82-0.32L58.82-0.32L58.82-0.32Q58.19-0.67 57.84-1.28L57.84-1.28L57.84-1.28Q57.49-1.90 57.49-2.71L57.49-2.71L57.49-2.71Q57.49-3.51 57.84-4.13L57.84-4.13L57.84-4.13Q58.19-4.75 58.82-5.10L58.82-5.10L58.82-5.10Q59.45-5.45 60.27-5.45L60.27-5.45ZM60.27-4.62L60.27-4.62Q59.74-4.62 59.33-4.37L59.33-4.37L59.33-4.37Q58.91-4.13 58.68-3.69L58.68-3.69L58.68-3.69Q58.45-3.26 58.45-2.70L58.45-2.70L58.45-2.70Q58.45-2.14 58.68-1.70L58.68-1.70L58.68-1.70Q58.91-1.26 59.33-1.02L59.33-1.02L59.33-1.02Q59.74-0.78 60.27-0.78L60.27-0.78L60.27-0.78Q60.79-0.78 61.21-1.02L61.21-1.02L61.21-1.02Q61.62-1.26 61.85-1.70L61.85-1.70L61.85-1.70Q62.08-2.14 62.08-2.70L62.08-2.70L62.08-2.70Q62.08-3.26 61.85-3.69L61.85-3.69L61.85-3.69Q61.62-4.13 61.21-4.37L61.21-4.37L61.21-4.37Q60.79-4.62 60.27-4.62L60.27-4.62ZM68.18-3.97L68.18-3.97Q67.53-4.60 66.63-4.60L66.63-4.60L66.63-4.60Q66.10-4.60 65.68-4.36L65.68-4.36L65.68-4.36Q65.27-4.13 65.03-3.70L65.03-3.70L65.03-3.70Q64.80-3.27 64.80-2.70L64.80-2.70L64.80-2.70Q64.80-2.14 65.03-1.71L65.03-1.71L65.03-1.71Q65.26-1.28 65.66-1.04L65.66-1.04L65.66-1.04Q66.07-0.80 66.59-0.80L66.59-0.80L66.59-0.80Q67.11-0.80 67.53-0.97L67.53-0.97L67.53-0.97Q67.95-1.15 68.23-1.47L68.23-1.47L68.77-0.92L68.77-0.92Q68.40-0.46 67.83-0.21L67.83-0.21L67.83-0.21Q67.26 0.03 66.55 0.03L66.55 0.03L66.55 0.03Q65.76 0.03 65.15-0.32L65.15-0.32L65.15-0.32Q64.53-0.67 64.19-1.28L64.19-1.28L64.19-1.28Q63.85-1.90 63.85-2.70L63.85-2.70L63.85-2.70Q63.85-3.50 64.19-4.13L64.19-4.13L64.19-4.13Q64.53-4.75 65.15-5.10L65.15-5.10L65.15-5.10Q65.76-5.45 66.55-5.45L66.55-5.45L66.55-5.45Q67.23-5.45 67.78-5.24L67.78-5.24L67.78-5.24Q68.33-5.03 68.70-4.63L68.70-4.63L68.18-3.97ZM72.30-5.45L72.30-5.45Q73.56-5.45 74.20-4.70L74.20-4.70L74.20-4.70Q74.85-3.96 74.85-2.64L74.85-2.64L74.85-2.64Q74.85-2.44 74.84-2.33L74.84-2.33L70.56-2.33L70.56-2.33Q70.67-1.61 71.17-1.18L71.17-1.18L71.17-1.18Q71.67-0.75 72.39-0.75L72.39-0.75L72.39-0.75Q72.87-0.75 73.29-0.92L73.29-0.92L73.29-0.92Q73.70-1.10 74.01-1.41L74.01-1.41L74.53-0.87L74.53-0.87Q74.13-0.44 73.57-0.20L73.57-0.20L73.57-0.20Q73.01 0.03 72.32 0.03L72.32 0.03L72.32 0.03Q71.52 0.03 70.90-0.31L70.90-0.31L70.90-0.31Q70.28-0.66 69.94-1.28L69.94-1.28L69.94-1.28Q69.60-1.90 69.60-2.70L69.60-2.70L69.60-2.70Q69.60-3.50 69.94-4.12L69.94-4.12L69.94-4.12Q70.28-4.74 70.90-5.09L70.90-5.09L70.90-5.09Q71.51-5.45 72.30-5.45L72.30-5.45ZM70.55-3.07L73.99-3.07L73.99-3.07Q73.95-3.81 73.50-4.23L73.50-4.23L73.50-4.23Q73.05-4.66 72.31-4.66L72.31-4.66L72.31-4.66Q71.59-4.66 71.12-4.23L71.12-4.23L71.12-4.23Q70.64-3.80 70.55-3.07L70.55-3.07ZM79.11-4.22L79.11-4.22Q78.77-4.42 78.37-4.55L78.37-4.55L78.37-4.55Q77.96-4.67 77.59-4.67L77.59-4.67L77.59-4.67Q77.16-4.67 76.90-4.51L76.90-4.51L76.90-4.51Q76.64-4.35 76.64-4.02L76.64-4.02L76.64-4.02Q76.64-3.70 76.93-3.53L76.93-3.53L76.93-3.53Q77.22-3.36 77.82-3.18L77.82-3.18L77.82-3.18Q78.38-3.02 78.74-2.86L78.74-2.86L78.74-2.86Q79.10-2.69 79.35-2.37L79.35-2.37L79.35-2.37Q79.60-2.06 79.60-1.54L79.60-1.54L79.60-1.54Q79.60-0.77 79.02-0.37L79.02-0.37L79.02-0.37Q78.44 0.03 77.58 0.03L77.58 0.03L77.58 0.03Q76.98 0.03 76.41-0.16L76.41-0.16L76.41-0.16Q75.84-0.36 75.45-0.72L75.45-0.72L75.81-1.41L75.81-1.41Q76.15-1.11 76.65-0.92L76.65-0.92L76.65-0.92Q77.14-0.74 77.61-0.74L77.61-0.74L77.61-0.74Q78.08-0.74 78.37-0.91L78.37-0.91L78.37-0.91Q78.66-1.09 78.66-1.44L78.66-1.44L78.66-1.44Q78.66-1.81 78.36-2.00L78.36-2.00L78.36-2.00Q78.05-2.18 77.44-2.36L77.44-2.36L77.44-2.36Q76.90-2.52 76.55-2.68L76.55-2.68L76.55-2.68Q76.21-2.84 75.97-3.14L75.97-3.14L75.97-3.14Q75.73-3.45 75.73-3.94L75.73-3.94L75.73-3.94Q75.73-4.70 76.28-5.08L76.28-5.08L76.28-5.08Q76.84-5.46 77.66-5.46L77.66-5.46L77.66-5.46Q78.16-5.46 78.63-5.32L78.63-5.32L78.63-5.32Q79.11-5.18 79.46-4.94L79.46-4.94L79.11-4.22ZM83.82-4.22L83.82-4.22Q83.48-4.42 83.07-4.55L83.07-4.55L83.07-4.55Q82.67-4.67 82.30-4.67L82.30-4.67L82.30-4.67Q81.87-4.67 81.61-4.51L81.61-4.51L81.61-4.51Q81.35-4.35 81.35-4.02L81.35-4.02L81.35-4.02Q81.35-3.70 81.64-3.53L81.64-3.53L81.64-3.53Q81.93-3.36 82.53-3.18L82.53-3.18L82.53-3.18Q83.09-3.02 83.45-2.86L83.45-2.86L83.45-2.86Q83.81-2.69 84.06-2.37L84.06-2.37L84.06-2.37Q84.31-2.06 84.31-1.54L84.31-1.54L84.31-1.54Q84.31-0.77 83.73-0.37L83.73-0.37L83.73-0.37Q83.15 0.03 82.29 0.03L82.29 0.03L82.29 0.03Q81.69 0.03 81.12-0.16L81.12-0.16L81.12-0.16Q80.55-0.36 80.16-0.72L80.16-0.72L80.52-1.41L80.52-1.41Q80.86-1.11 81.35-0.92L81.35-0.92L81.35-0.92Q81.85-0.74 82.32-0.74L82.32-0.74L82.32-0.74Q82.79-0.74 83.08-0.91L83.08-0.91L83.08-0.91Q83.37-1.09 83.37-1.44L83.37-1.44L83.37-1.44Q83.37-1.81 83.06-2.00L83.06-2.00L83.06-2.00Q82.76-2.18 82.15-2.36L82.15-2.36L82.15-2.36Q81.61-2.52 81.26-2.68L81.26-2.68L81.26-2.68Q80.92-2.84 80.68-3.14L80.68-3.14L80.68-3.14Q80.44-3.45 80.44-3.94L80.44-3.94L80.44-3.94Q80.44-4.70 80.99-5.08L80.99-5.08L80.99-5.08Q81.54-5.46 82.37-5.46L82.37-5.46L82.37-5.46Q82.86-5.46 83.34-5.32L83.34-5.32L83.34-5.32Q83.82-5.18 84.16-4.94L84.16-4.94L83.82-4.22ZM91.47-7.23L91.47-7.23Q92.51-7.23 93.37-6.75L93.37-6.75L93.37-6.75Q94.24-6.26 94.74-5.43L94.74-5.43L94.74-5.43Q95.24-4.60 95.24-3.59L95.24-3.59L95.24-3.59Q95.24-2.59 94.74-1.75L94.74-1.75L94.74-1.75Q94.24-0.90 93.37-0.41L93.37-0.41L93.37-0.41Q92.51 0.07 91.47 0.07L91.47 0.07L91.47 0.07Q90.44 0.07 89.57-0.41L89.57-0.41L89.57-0.41Q88.71-0.90 88.21-1.75L88.21-1.75L88.21-1.75Q87.71-2.59 87.71-3.59L87.71-3.59L87.71-3.59Q87.71-4.60 88.21-5.43L88.21-5.43L88.21-5.43Q88.71-6.26 89.57-6.75L89.57-6.75L89.57-6.75Q90.43-7.23 91.47-7.23L91.47-7.23ZM91.48-6.35L91.48-6.35Q90.74-6.35 90.10-5.98L90.10-5.98L90.10-5.98Q89.46-5.61 89.08-4.98L89.08-4.98L89.08-4.98Q88.70-4.35 88.70-3.59L88.70-3.59L88.70-3.59Q88.70-2.84 89.08-2.20L89.08-2.20L89.08-2.20Q89.46-1.57 90.10-1.19L90.10-1.19L90.10-1.19Q90.74-0.82 91.48-0.82L91.48-0.82L91.48-0.82Q92.23-0.82 92.86-1.19L92.86-1.19L92.86-1.19Q93.49-1.57 93.86-2.20L93.86-2.20L93.86-2.20Q94.24-2.84 94.24-3.59L94.24-3.59L94.24-3.59Q94.24-4.35 93.86-4.98L93.86-4.98L93.86-4.98Q93.49-5.61 92.86-5.98L92.86-5.98L92.86-5.98Q92.23-6.35 91.48-6.35L91.48-6.35ZM100.39-5.42L101.35-5.42L101.35 0L100.39 0L100.39-1.15L100.39-1.15Q99.86 0.01 98.38 0.03L98.38 0.03L98.38 0.03Q97.44 0.03 96.91-0.53L96.91-0.53L96.91-0.53Q96.38-1.09 96.38-2.07L96.38-2.07L96.38-5.42L97.34-5.42L97.34-2.32L97.34-2.32Q97.34-1.64 97.71-1.25L97.71-1.25L97.71-1.25Q98.09-0.87 98.74-0.87L98.74-0.87L98.74-0.87Q99.50-0.88 99.94-1.41L99.94-1.41L99.94-1.41Q100.39-1.93 100.39-2.75L100.39-2.75L100.39-5.42ZM105.86-1.10L106.11-0.36L106.11-0.36Q105.49 0.04 104.84 0.04L104.84 0.04L104.84 0.04Q104.20 0.04 103.80-0.34L103.80-0.34L103.80-0.34Q103.40-0.73 103.40-1.50L103.40-1.50L103.40-4.50L102.63-4.50L102.63-5.23L103.40-5.23L103.40-6.68L104.36-6.68L104.36-5.23L106.02-5.23L106.02-4.50L104.36-4.50L104.36-1.68L104.36-1.68Q104.36-1.23 104.52-1.03L104.52-1.03L104.52-1.03Q104.69-0.84 105.02-0.84L105.02-0.84L105.02-0.84Q105.41-0.84 105.86-1.10L105.86-1.10ZM110.23-4.22L110.23-4.22Q109.89-4.42 109.48-4.55L109.48-4.55L109.48-4.55Q109.08-4.67 108.71-4.67L108.71-4.67L108.71-4.67Q108.28-4.67 108.02-4.51L108.02-4.51L108.02-4.51Q107.76-4.35 107.76-4.02L107.76-4.02L107.76-4.02Q107.76-3.70 108.05-3.53L108.05-3.53L108.05-3.53Q108.34-3.36 108.94-3.18L108.94-3.18L108.94-3.18Q109.50-3.02 109.86-2.86L109.86-2.86L109.86-2.86Q110.22-2.69 110.47-2.37L110.47-2.37L110.47-2.37Q110.72-2.06 110.72-1.54L110.72-1.54L110.72-1.54Q110.72-0.77 110.14-0.37L110.14-0.37L110.14-0.37Q109.56 0.03 108.70 0.03L108.70 0.03L108.70 0.03Q108.10 0.03 107.53-0.16L107.53-0.16L107.53-0.16Q106.96-0.36 106.57-0.72L106.57-0.72L106.93-1.41L106.93-1.41Q107.27-1.11 107.76-0.92L107.76-0.92L107.76-0.92Q108.26-0.74 108.73-0.74L108.73-0.74L108.73-0.74Q109.20-0.74 109.49-0.91L109.49-0.91L109.49-0.91Q109.78-1.09 109.78-1.44L109.78-1.44L109.78-1.44Q109.78-1.81 109.47-2.00L109.47-2.00L109.47-2.00Q109.17-2.18 108.56-2.36L108.56-2.36L108.56-2.36Q108.02-2.52 107.67-2.68L107.67-2.68L107.67-2.68Q107.33-2.84 107.09-3.14L107.09-3.14L107.09-3.14Q106.85-3.45 106.85-3.94L106.85-3.94L106.85-3.94Q106.85-4.70 107.40-5.08L107.40-5.08L107.40-5.08Q107.95-5.46 108.78-5.46L108.78-5.46L108.78-5.46Q109.27-5.46 109.75-5.32L109.75-5.32L109.75-5.32Q110.23-5.18 110.57-4.94L110.57-4.94L110.23-4.22ZM114.23-5.45L114.23-5.45Q115.04-5.45 115.67-5.10L115.67-5.10L115.67-5.10Q116.30-4.75 116.65-4.13L116.65-4.13L116.65-4.13Q117.00-3.51 117.00-2.71L117.00-2.71L117.00-2.71Q117.00-1.91 116.65-1.29L116.65-1.29L116.65-1.29Q116.30-0.67 115.67-0.32L115.67-0.32L115.67-0.32Q115.04 0.03 114.23 0.03L114.23 0.03L114.23 0.03Q113.41 0.03 112.78-0.32L112.78-0.32L112.78-0.32Q112.15-0.67 111.80-1.28L111.80-1.28L111.80-1.28Q111.44-1.90 111.44-2.71L111.44-2.71L111.44-2.71Q111.44-3.51 111.80-4.13L111.80-4.13L111.80-4.13Q112.15-4.75 112.78-5.10L112.78-5.10L112.78-5.10Q113.41-5.45 114.23-5.45L114.23-5.45ZM114.23-4.62L114.23-4.62Q113.70-4.62 113.28-4.37L113.28-4.37L113.28-4.37Q112.87-4.13 112.64-3.69L112.64-3.69L112.64-3.69Q112.41-3.26 112.41-2.70L112.41-2.70L112.41-2.70Q112.41-2.14 112.64-1.70L112.64-1.70L112.64-1.70Q112.87-1.26 113.28-1.02L113.28-1.02L113.28-1.02Q113.70-0.78 114.23-0.78L114.23-0.78L114.23-0.78Q114.75-0.78 115.17-1.02L115.17-1.02L115.17-1.02Q115.58-1.26 115.81-1.70L115.81-1.70L115.81-1.70Q116.04-2.14 116.04-2.70L116.04-2.70L116.04-2.70Q116.04-3.26 115.81-3.69L115.81-3.69L115.81-3.69Q115.58-4.13 115.17-4.37L115.17-4.37L115.17-4.37Q114.75-4.62 114.23-4.62L114.23-4.62ZM122.16-5.42L123.12-5.42L123.12 0L122.16 0L122.16-1.15L122.16-1.15Q121.63 0.01 120.16 0.03L120.16 0.03L120.16 0.03Q119.21 0.03 118.68-0.53L118.68-0.53L118.68-0.53Q118.15-1.09 118.15-2.07L118.15-2.07L118.15-5.42L119.11-5.42L119.11-2.32L119.11-2.32Q119.11-1.64 119.49-1.25L119.49-1.25L119.49-1.25Q119.86-0.87 120.51-0.87L120.51-0.87L120.51-0.87Q121.27-0.88 121.72-1.41L121.72-1.41L121.72-1.41Q122.16-1.93 122.16-2.75L122.16-2.75L122.16-5.42ZM125.93-4.25L125.93-4.25Q126.20-4.83 126.69-5.13L126.69-5.13L126.69-5.13Q127.18-5.44 127.85-5.45L127.85-5.45L127.85-4.52L127.85-4.52Q127.02-4.56 126.51-4.09L126.51-4.09L126.51-4.09Q126.00-3.63 125.93-2.86L125.93-2.86L125.93 0L124.98 0L124.98-5.42L125.93-5.42L125.93-4.25ZM132.69-3.97L132.69-3.97Q132.04-4.60 131.14-4.60L131.14-4.60L131.14-4.60Q130.61-4.60 130.19-4.36L130.19-4.36L130.19-4.36Q129.78-4.13 129.54-3.70L129.54-3.70L129.54-3.70Q129.31-3.27 129.31-2.70L129.31-2.70L129.31-2.70Q129.31-2.14 129.54-1.71L129.54-1.71L129.54-1.71Q129.77-1.28 130.17-1.04L130.17-1.04L130.17-1.04Q130.58-0.80 131.10-0.80L131.10-0.80L131.10-0.80Q131.62-0.80 132.04-0.97L132.04-0.97L132.04-0.97Q132.46-1.15 132.74-1.47L132.74-1.47L133.28-0.92L133.28-0.92Q132.91-0.46 132.34-0.21L132.34-0.21L132.34-0.21Q131.77 0.03 131.06 0.03L131.06 0.03L131.06 0.03Q130.27 0.03 129.66-0.32L129.66-0.32L129.66-0.32Q129.04-0.67 128.70-1.28L128.70-1.28L128.70-1.28Q128.36-1.90 128.36-2.70L128.36-2.70L128.36-2.70Q128.36-3.50 128.70-4.13L128.70-4.13L128.70-4.13Q129.04-4.75 129.66-5.10L129.66-5.10L129.66-5.10Q130.27-5.45 131.06-5.45L131.06-5.45L131.06-5.45Q131.74-5.45 132.29-5.24L132.29-5.24L132.29-5.24Q132.84-5.03 133.21-4.63L133.21-4.63L132.69-3.97ZM134.64 0L134.64-5.42L135.59-5.42L135.59 0L134.64 0ZM135.11-7.58L135.11-7.58Q135.37-7.58 135.54-7.40L135.54-7.40L135.54-7.40Q135.71-7.23 135.71-6.96L135.71-6.96L135.71-6.96Q135.71-6.69 135.54-6.52L135.54-6.52L135.54-6.52Q135.37-6.35 135.11-6.35L135.11-6.35L135.11-6.35Q134.86-6.35 134.69-6.52L134.69-6.52L134.69-6.52Q134.52-6.69 134.52-6.96L134.52-6.96L134.52-6.96Q134.52-7.23 134.69-7.40L134.69-7.40L134.69-7.40Q134.86-7.58 135.11-7.58L135.11-7.58ZM140.46-5.45L140.46-5.45Q141.41-5.45 141.95-4.89L141.95-4.89L141.95-4.89Q142.49-4.33 142.49-3.35L142.49-3.35L142.49 0L141.54 0L141.54-3.09L141.54-3.09Q141.54-3.78 141.16-4.16L141.16-4.16L141.16-4.16Q140.77-4.55 140.10-4.55L140.10-4.55L140.10-4.55Q139.37-4.53 138.91-4.08L138.91-4.08L138.91-4.08Q138.46-3.62 138.40-2.90L138.40-2.90L138.40 0L137.45 0L137.45-5.42L138.40-5.42L138.40-4.27L138.40-4.27Q138.94-5.43 140.46-5.45L140.46-5.45ZM148.02-5.42L148.98-5.42L148.98-0.55L148.98-0.55Q148.98 0.23 148.64 0.81L148.64 0.81L148.64 0.81Q148.30 1.39 147.67 1.70L147.67 1.70L147.67 1.70Q147.05 2.02 146.22 2.02L146.22 2.02L146.22 2.02Q145.02 2.02 143.99 1.26L143.99 1.26L144.41 0.56L144.41 0.56Q144.81 0.89 145.24 1.05L145.24 1.05L145.24 1.05Q145.67 1.21 146.18 1.21L146.18 1.21L146.18 1.21Q147.02 1.21 147.52 0.74L147.52 0.74L147.52 0.74Q148.02 0.27 148.02-0.52L148.02-0.52L148.02-1.28L148.02-1.28Q147.73-0.79 147.24-0.52L147.24-0.52L147.24-0.52Q146.75-0.25 146.12-0.25L146.12-0.25L146.12-0.25Q145.39-0.25 144.83-0.58L144.83-0.58L144.83-0.58Q144.27-0.91 143.97-1.50L143.97-1.50L143.97-1.50Q143.66-2.10 143.66-2.87L143.66-2.87L143.66-2.87Q143.66-3.62 143.97-4.21L143.97-4.21L143.97-4.21Q144.27-4.79 144.83-5.12L144.83-5.12L144.83-5.12Q145.39-5.45 146.12-5.45L146.12-5.45L146.12-5.45Q146.76-5.45 147.25-5.18L147.25-5.18L147.25-5.18Q147.73-4.91 148.02-4.42L148.02-4.42L148.02-5.42ZM146.30-1.01L146.30-1.01Q146.80-1.01 147.19-1.25L147.19-1.25L147.19-1.25Q147.58-1.48 147.80-1.90L147.80-1.90L147.80-1.90Q148.02-2.31 148.02-2.84L148.02-2.84L148.02-2.84Q148.02-3.37 147.80-3.78L147.80-3.78L147.80-3.78Q147.58-4.20 147.19-4.43L147.19-4.43L147.19-4.43Q146.80-4.67 146.30-4.67L146.30-4.67L146.30-4.67Q145.80-4.67 145.40-4.43L145.40-4.43L145.40-4.43Q145.01-4.20 144.79-3.78L144.79-3.78L144.79-3.78Q144.56-3.37 144.56-2.84L144.56-2.84L144.56-2.84Q144.57-2.04 145.05-1.53L145.05-1.53L145.05-1.53Q145.53-1.01 146.30-1.01L146.30-1.01Z" fill="#5928B1"/></g></svg>